<?xml version="1.0" standalone="no"?>
<!DOCTYPE svg PUBLIC "-//W3C//DTD SVG 20010904//EN"
 "http://www.w3.org/TR/2001/REC-SVG-20010904/DTD/svg10.dtd">
<svg version="1.0" xmlns="http://www.w3.org/2000/svg"
 width="708.000000pt" height="708.000000pt" viewBox="0 0 708.000000 708.000000"
 preserveAspectRatio="xMidYMid meet">
<metadata>
Created by potrace 1.11, written by Peter Selinger 2001-2013
</metadata>
<g transform="translate(0.000000,708.000000) scale(0.100000,-0.100000)"
fill="#000000" stroke="none">
<path d="M6377 6914 c-1 -1 -60 -5 -132 -9 -275 -16 -407 -26 -565 -41 -36 -3
-87 -7 -115 -9 -27 -2 -70 -7 -95 -10 -25 -3 -74 -8 -110 -11 -36 -2 -81 -6
-100 -9 -35 -4 -88 -11 -165 -20 -22 -2 -67 -7 -100 -10 -33 -3 -71 -8 -85
-10 -14 -3 -47 -7 -75 -11 -78 -10 -85 -11 -174 -23 -83 -12 -103 -15 -196
-25 -27 -4 -57 -9 -66 -11 -9 -3 -36 -8 -60 -10 -24 -3 -55 -7 -69 -10 -14 -3
-45 -8 -70 -11 -70 -10 -73 -10 -105 -17 -16 -3 -47 -9 -67 -12 -87 -12 -114
-16 -128 -20 -8 -2 -31 -7 -50 -10 -19 -3 -59 -10 -89 -16 -30 -6 -64 -12 -75
-14 -12 -1 -61 -10 -111 -20 -49 -9 -101 -19 -115 -20 -14 -2 -34 -6 -45 -8
-25 -7 -161 -35 -195 -41 -14 -2 -117 -25 -230 -50 -113 -24 -216 -47 -230
-50 -40 -8 -52 -11 -335 -81 -148 -37 -277 -69 -285 -70 -8 -1 -22 -5 -30 -8
-15 -5 -105 -30 -145 -40 -11 -3 -78 -22 -150 -41 -71 -20 -137 -38 -145 -41
-8 -2 -62 -18 -120 -35 -58 -16 -113 -32 -123 -35 -18 -4 -187 -56 -262 -80
-22 -7 -74 -23 -115 -35 -41 -12 -84 -26 -95 -30 -21 -9 -93 -32 -110 -36
-108 -23 -228 -96 -219 -133 9 -40 198 -672 214 -716 6 -16 13 -37 15 -45 1
-8 9 -35 16 -60 15 -55 14 -52 22 -70 3 -8 13 -42 22 -75 10 -33 20 -67 23
-75 3 -8 7 -24 9 -34 2 -11 5 -22 8 -24 2 -3 -18 -28 -44 -56 -170 -181 -255
-330 -331 -583 -15 -51 -26 -93 -24 -93 3 0 1 -8 -5 -17 -5 -10 -12 -38 -15
-63 -4 -25 -10 -61 -15 -80 -11 -48 -12 -346 -1 -396 8 -39 18 -93 23 -127 1
-13 -16 -25 -68 -48 -38 -17 -77 -32 -85 -34 -8 -2 -64 -24 -125 -50 -60 -25
-118 -48 -127 -50 -9 -2 -27 -9 -40 -16 -13 -8 -25 -14 -28 -15 -3 0 -14 -4
-25 -8 -11 -5 -25 -10 -32 -12 -12 -3 6 -61 56 -176 22 -51 29 -55 64 -36 12
7 27 13 32 14 9 2 151 59 220 89 17 7 62 25 100 40 39 15 85 35 103 43 30 13
34 13 52 -3 11 -10 20 -23 20 -29 1 -19 92 -151 150 -218 49 -58 97 -102 189
-176 124 -100 399 -215 564 -236 20 -3 52 -8 69 -11 l33 -6 104 -352 c58 -194
107 -356 110 -362 3 -5 6 -14 8 -20 1 -5 9 -35 18 -65 9 -30 17 -59 19 -65 1
-5 9 -30 16 -55 8 -25 14 -47 15 -50 1 -3 6 -21 12 -40 15 -48 103 -341 108
-360 2 -8 20 -67 40 -130 20 -63 38 -122 40 -130 35 -121 43 -147 48 -160 6
-15 50 -160 51 -170 1 -3 12 -42 26 -88 l24 -82 2021 2 2020 3 2 75 c1 41 4
172 7 290 3 118 8 303 11 410 8 329 15 596 20 790 3 102 8 271 10 375 9 384
15 598 20 792 4 109 8 261 10 338 1 77 3 157 4 177 1 29 8 44 32 65 52 46 113
107 138 140 28 34 35 34 96 -8 80 -55 246 -159 253 -159 5 0 119 167 129 190
3 5 -23 23 -197 135 -58 37 -107 69 -109 71 -2 2 11 36 29 76 71 159 92 261
95 446 4 240 -50 424 -171 587 -68 93 -108 132 -185 188 l-65 46 3 108 c1 59
5 209 8 333 2 124 7 304 10 400 2 96 7 283 10 415 3 132 8 293 10 358 l3 117
-70 -2 c-38 -2 -70 -4 -71 -4z m-112 -483 c-3 -130 -8 -317 -11 -416 -4 -185
-14 -550 -17 -665 l-2 -65 -40 5 c-62 7 -255 6 -305 -2 -209 -32 -437 -156
-608 -329 l-89 -89 -117 76 c-64 42 -118 75 -120 73 -8 -10 -126 -191 -126
-194 0 -2 52 -37 115 -79 63 -42 115 -78 115 -80 0 -2 -16 -37 -35 -78 -29
-64 -70 -197 -90 -297 -13 -58 -12 -251 0 -331 39 -261 178 -486 379 -615 83
-53 216 -107 298 -121 119 -20 327 -7 433 26 17 6 32 9 35 8 3 0 24 9 48 21
23 12 46 20 50 17 4 -2 7 -31 6 -63 -1 -32 -5 -175 -9 -318 -3 -143 -8 -332
-11 -420 -2 -88 -6 -254 -9 -370 -2 -115 -7 -300 -10 -410 -3 -110 -7 -279
-10 -375 -2 -96 -7 -276 -10 -400 -4 -124 -8 -294 -9 -378 -2 -84 -6 -155 -9
-159 -4 -4 -3532 -8 -3614 -4 -6 1 -14 9 -17 19 -18 67 -81 277 -111 372 -21
69 -97 323 -100 334 -2 12 -6 24 -24 76 -7 19 -14 44 -16 55 -4 21 -17 65 -60
205 -37 118 -79 258 -110 365 -14 50 -27 95 -29 100 -2 6 -4 13 -5 17 -1 4 -9
27 -17 50 -9 24 -17 52 -20 63 -2 11 -15 56 -28 100 -38 122 -40 135 -25 136
8 0 23 2 34 5 11 2 40 6 65 10 56 8 203 42 238 55 15 6 34 12 43 14 28 6 192
78 231 102 21 13 41 23 45 23 5 0 28 14 53 30 25 17 54 36 64 43 114 73 254
198 350 311 22 27 47 54 54 62 6 7 12 15 12 19 0 3 4 11 10 18 40 50 61 80 93
135 21 35 37 67 37 73 0 5 4 9 10 9 5 0 9 3 8 8 -1 4 13 38 30 75 64 138 126
370 132 492 4 69 3 228 -1 285 l-4 55 130 52 c72 29 136 53 143 53 6 0 12 4
12 10 0 5 3 9 8 8 4 -2 33 8 64 21 l57 23 -14 31 c-21 49 -41 98 -55 137 -7
19 -16 39 -20 43 -6 7 -177 -55 -285 -103 -45 -20 -98 -40 -106 -40 -5 0 -9 7
-9 15 0 17 -99 214 -117 233 -7 8 -18 23 -24 34 -18 34 -122 154 -164 189 -11
9 -33 29 -50 44 -50 45 -188 132 -266 168 -211 98 -458 142 -689 123 -182 -14
-343 -53 -530 -130 -8 -3 -22 -10 -30 -15 -8 -5 -28 -15 -45 -22 -49 -22 -176
-98 -235 -141 l-54 -39 -22 73 c-12 40 -37 120 -54 178 -18 58 -39 125 -47
150 -8 25 -16 52 -17 60 -1 8 -12 47 -25 85 -12 39 -24 77 -26 85 -2 8 -16 57
-31 107 -15 51 -26 94 -23 96 2 2 74 25 159 51 85 26 162 50 170 53 8 3 20 7
25 8 6 2 62 19 125 38 124 39 464 137 493 142 9 2 21 6 25 9 5 3 19 7 33 10
13 3 35 8 49 11 14 3 36 8 50 11 13 3 31 11 39 17 8 7 17 11 20 9 5 -3 56 6
81 13 52 15 89 25 105 28 11 2 40 9 65 16 25 7 52 14 60 16 8 2 44 11 80 20
36 9 74 19 85 21 11 2 70 15 130 30 61 14 117 27 125 29 8 2 35 8 60 14 25 5
56 12 70 15 45 9 71 15 88 20 9 3 32 8 49 11 18 3 61 12 95 20 66 15 119 25
153 30 11 2 38 8 60 13 22 6 60 14 85 17 24 4 47 8 50 10 3 2 26 6 50 10 25 3
64 11 88 16 23 5 59 12 80 15 20 3 44 7 52 9 8 3 33 7 55 10 22 4 51 8 65 11
29 6 68 12 108 18 15 2 59 10 97 16 85 15 98 17 155 24 25 4 52 8 60 11 8 2
38 6 65 10 28 3 75 10 105 15 30 5 78 12 105 15 28 3 61 8 75 10 14 2 45 6 70
9 94 13 116 15 145 20 17 2 57 7 90 10 33 4 76 8 95 11 36 5 98 12 185 20 28
3 73 7 100 10 28 3 73 7 100 10 28 3 70 7 95 10 41 5 90 9 240 20 30 3 78 7
105 9 28 3 102 8 165 11 63 4 116 8 118 9 1 2 16 3 33 3 l30 0 -6 -236z m-76
-1386 c19 -4 46 -12 60 -18 14 -5 28 -11 31 -11 26 -5 118 -73 175 -130 87
-86 159 -211 181 -311 2 -11 7 -31 10 -45 10 -47 12 -195 3 -245 -5 -27 -11
-63 -14 -79 -7 -44 -54 -181 -69 -201 -12 -17 -23 -11 -150 71 -75 49 -221
144 -324 211 -103 67 -257 167 -342 222 -85 56 -199 130 -254 165 l-99 64 69
67 c130 127 288 214 445 244 48 9 224 7 278 -4z m-3938 -129 c46 -4 95 -9 109
-12 25 -6 107 -24 125 -27 6 -2 15 -5 20 -8 6 -4 28 -12 50 -19 22 -7 61 -23
87 -36 27 -14 51 -25 55 -25 28 -4 177 -123 238 -188 87 -94 205 -286 205
-334 0 -8 -162 -79 -452 -196 -249 -100 -473 -190 -498 -199 -25 -9 -47 -19
-50 -22 -3 -3 -9 -6 -15 -7 -11 -2 -429 -168 -460 -183 -11 -5 -139 -57 -285
-116 -146 -58 -278 -112 -294 -120 -16 -8 -33 -14 -38 -14 -4 0 -27 -9 -51
-19 -36 -16 -69 -30 -87 -36 -11 -4 -47 -18 -87 -36 -24 -10 -45 -14 -48 -9
-6 11 -17 137 -18 210 -1 132 26 329 58 426 63 190 189 388 346 545 84 85 227
199 248 199 6 0 11 4 11 8 0 14 218 119 313 151 48 16 87 28 87 26 0 -3 11 0
26 5 43 17 101 26 224 36 41 3 77 8 79 10 2 2 7 2 10 -1 4 -2 45 -6 92 -9z
m3086 -424 c32 -21 92 -60 133 -87 41 -27 108 -70 148 -97 41 -26 77 -48 82
-48 5 0 10 -3 12 -8 2 -4 129 -89 283 -189 419 -271 425 -275 425 -283 0 -4
-35 -40 -77 -81 -177 -166 -372 -249 -574 -244 -103 3 -137 8 -214 37 -197 72
-329 236 -378 471 -17 77 -15 284 2 316 7 12 10 21 7 21 -3 0 0 15 5 33 6 17
12 43 15 56 7 34 56 141 65 141 4 0 34 -17 66 -38z m-2133 -576 c-2 -106 -10
-206 -18 -234 -3 -9 -7 -28 -10 -42 -6 -36 -27 -111 -37 -135 -5 -11 -16 -40
-24 -65 -26 -75 -148 -293 -185 -330 -3 -3 -21 -25 -42 -50 -215 -265 -545
-458 -880 -514 -89 -15 -283 -22 -333 -12 -11 2 -40 7 -65 11 -25 4 -55 9 -68
12 -54 9 -183 58 -264 100 -105 54 -195 121 -266 197 -49 54 -132 172 -144
207 -5 12 30 30 171 87 97 40 182 72 189 72 6 0 12 5 12 10 0 6 3 9 8 8 6 -2
84 26 157 58 17 7 53 22 80 32 64 24 424 170 450 182 11 5 45 19 75 30 30 11
64 25 75 30 25 11 178 74 185 76 8 1 42 15 75 29 17 7 89 37 160 65 72 29 141
57 155 63 14 6 27 11 30 11 9 2 105 41 185 76 11 4 74 30 140 56 66 25 131 52
144 59 44 22 46 18 45 -89z"/>
<path d="M5390 2549 c-30 -39 -66 -85 -80 -103 -29 -36 -299 -307 -350 -352
-111 -95 -333 -254 -356 -254 -7 0 -14 -4 -16 -9 -8 -23 -287 -150 -421 -191
-178 -55 -308 -74 -502 -74 -169 -1 -263 9 -380 39 -33 8 -69 17 -79 20 -31 7
-89 26 -111 35 -148 63 -306 144 -313 162 -2 4 -8 8 -14 8 -5 0 -15 6 -22 13
-8 6 -24 19 -37 27 -26 17 -140 111 -184 152 l-30 28 -31 -36 c-18 -19 -53
-57 -78 -84 -25 -27 -46 -51 -46 -55 0 -10 93 -95 170 -155 25 -19 47 -38 48
-42 2 -5 9 -8 16 -8 7 0 21 -9 31 -20 10 -11 23 -20 30 -20 7 0 19 -8 28 -17
9 -10 47 -34 84 -53 37 -19 70 -38 71 -42 2 -5 9 -8 15 -8 7 0 34 -11 62 -25
145 -71 365 -131 565 -153 125 -14 412 -6 510 13 52 11 76 15 101 20 22 4 184
49 214 59 6 2 13 4 17 5 5 1 33 12 63 26 31 13 56 24 58 23 13 -7 376 188 430
232 7 5 57 43 112 84 202 149 487 428 584 569 8 12 17 24 21 27 19 17 60 74
60 84 0 6 -35 38 -77 71 -43 33 -79 63 -81 67 -9 20 -31 2 -82 -63z"/>
<path d="M5652 4045 c-112 -34 -174 -122 -167 -237 4 -57 32 -117 70 -151 63
-56 176 -76 245 -43 42 19 93 63 109 95 20 37 40 111 31 116 -4 3 -6 14 -3 24
7 26 -28 101 -65 139 -56 57 -143 79 -220 57z"/>
<path d="M2385 3310 c-111 -24 -188 -125 -180 -237 4 -62 16 -92 57 -139 104
-118 300 -93 374 47 26 49 28 153 3 201 -49 96 -154 149 -254 128z"/>
</g>
</svg>
