<?xml version="1.0" encoding="UTF-8"?>
<!DOCTYPE svg PUBLIC "-//W3C//DTD SVG 1.0//EN" "http://www.w3.org/TR/2001/REC-SVG-20010904/DTD/svg10.dtd">
<!-- Creator: CorelDRAW X6 -->
<svg xmlns="http://www.w3.org/2000/svg" xml:space="preserve" width="50.0364mm" height="47.7856mm" version="1.0" style="shape-rendering:geometricPrecision; text-rendering:geometricPrecision; image-rendering:optimizeQuality; fill-rule:evenodd; clip-rule:evenodd"
viewBox="0 0 5018 4792"
 xmlns:xlink="http://www.w3.org/1999/xlink">
 <defs>
  <style type="text/css">
   <![CDATA[
    .str0 {stroke:#2B2A29;stroke-width:169.821}
    .fil0 {fill:none}
   ]]>
  </style>
 </defs>
 <g id="Слой_x0020_1">
  <metadata id="CorelCorpID_0Corel-Layer"/>
  <g id="_762562032">
   <path class="fil0 str0" d="M536 852l239 794c-137,121 -238,264 -288,465 -41,163 -49,383 -13,504 43,143 121,302 287,421 121,87 304,159 482,163l454 1509 2717 0 59 -2292c241,-191 327,-403 333,-590 6,-192 -68,-415 -304,-548l30 -1189c-1395,73 -2722,339 -3995,762z"/>
   <path class="fil0 str0" d="M3805 2459c266,179 653,68 865,-247 212,-315 168,-715 -98,-894 -266,-179 -653,-68 -865,247 -212,315 -168,715 98,894z"/>
   <path class="fil0 str0" d="M547 2793c238,426 813,535 1285,243 472,-291 661,-873 423,-1298 -238,-426 -813,-535 -1285,-243 -472,291 -661,873 -423,1298z"/>
   <path class="fil0 str0" d="M32 2866l2663 -1074"/>
   <path class="fil0 str0" d="M3468 1416l1504 977"/>
   <path class="fil0 str0" d="M4048 2272c43,0 78,-35 78,-78 0,-43 -35,-78 -78,-78 -43,0 -78,35 -78,78 0,43 35,78 78,78z"/>
   <path class="fil0 str0" d="M1723 2796c43,0 78,-35 78,-78 0,-43 -35,-78 -78,-78 -43,0 -78,35 -78,78 0,43 35,78 78,78z"/>
   <path class="fil0 str0" d="M1712 3515c291,286 614,374 913,369 437,-8 913,-262 1305,-787"/>
  </g>
 </g>
</svg>
