<svg xmlns="http://www.w3.org/2000/svg" width="189.114" height="180.607" version="1" viewBox="0 0 5018 4792" shape-rendering="geometricPrecision" text-rendering="geometricPrecision" image-rendering="optimizeQuality" fill-rule="evenodd" clip-rule="evenodd"><defs><style>.str0{stroke:#2b2a29;stroke-width:169.821}.fil0{fill:none}</style></defs><g id="Слой_x0020_1"><g id="_762562032"><path class="fil0 str0" d="M536 852l239 794c-137 121-238 264-288 465-41 163-49 383-13 504 43 143 121 302 287 421 121 87 304 159 482 163l454 1509h2717l59-2292c241-191 327-403 333-590 6-192-68-415-304-548l30-1189C3137 162 1810 428 537 851z"/><path class="fil0 str0" d="M3805 2459c266 179 653 68 865-247s168-715-98-894-653-68-865 247-168 715 98 894zM547 2793c238 426 813 535 1285 243 472-291 661-873 423-1298-238-426-813-535-1285-243-472 291-661 873-423 1298zM32 2866l2663-1074M3468 1416l1504 977"/><path class="fil0 str0" d="M4048 2272c43 0 78-35 78-78s-35-78-78-78-78 35-78 78 35 78 78 78zM1723 2796c43 0 78-35 78-78s-35-78-78-78-78 35-78 78 35 78 78 78zM1712 3515c291 286 614 374 913 369 437-8 913-262 1305-787"/></g></g></svg>
