<svg xmlns="http://www.w3.org/2000/svg" width="394.995" height="145.128" version="1" viewBox="0 0 10451 3840" shape-rendering="geometricPrecision" text-rendering="geometricPrecision" image-rendering="optimizeQuality" fill-rule="evenodd" clip-rule="evenodd"><defs><style>.fil1,.fil2{fill:#b2b3b3;fill-rule:nonzero}.fil1{fill:#383837}</style></defs><g id="Слой_x0020_1"><g id="_759672176"><path d="M7 40h1391c-4 149-4 301 0 457-96-57-188-91-278-101H917c-9 465-12 826-7 1082 5 257 10 418 17 485s23 130 50 188H425c30-63 47-126 51-189 4-62 10-223 17-481 8-259 4-620-11-1085H230c-84 7-160 41-229 101C15 335 17 183 8 40z" fill="#329dff" fill-rule="nonzero"/><path id="1" class="fil1" d="M2969 2151c-109 12-190 18-242 17-53-1-117-8-190-21-74-13-140-28-198-46s-120-46-187-86c-67-39-128-86-184-139-56-54-101-106-136-158-34-51-63-101-85-147-23-46-40-86-53-120s-29-90-49-169h-190V922h190c19-79 36-136 49-169 13-34 31-74 53-120s51-95 85-147c35-52 80-104 136-158 56-53 117-100 184-139 66-39 129-68 187-85 58-18 124-33 198-46s137-20 190-21 133 4 242 17v445c-18-17-50-37-97-57s-131-31-251-32c-74 2-140 17-197 46-58 29-103 60-138 93-34 33-68 72-102 117s-60 89-78 132c-18 42-29 83-34 124 436 0 736-3 898-9-24 126-24 249 0 369h-898c3 41 14 82 33 124s45 86 79 131c34 46 68 85 102 118s80 64 138 93c57 30 123 45 197 47 120-1 204-11 251-32s79-39 97-56v444z"/><path id="2" class="fil1" d="M4269 47l-7 457c-48-46-103-84-164-113-87-19-161-26-221-24-60 3-111 11-153 26s-74 38-96 67c-22 30-34 62-36 96s5 67 21 97c16 31 36 58 59 82 24 24 113 103 267 236 154 114 254 199 297 254 44 55 75 105 92 149s29 88 36 131 11 85 11 124c0 40-4 83-13 128s-25 90-49 132c-24 43-49 79-75 108s-58 54-96 75-78 39-120 52-118 23-229 27c-211 0-346-2-406-7-59-4-139 9-241 41l-14-528c84 57 145 94 182 111s115 32 233 46c129 0 211-10 245-31 35-21 61-53 79-96s23-89 16-137c-8-48-24-86-51-115-26-28-74-70-145-126-70-56-139-108-208-158-68-50-126-98-172-145s-79-91-100-134c-20-43-34-90-43-142s-13-106-13-164 9-111 26-159c17-49 50-101 99-156s105-98 169-128c63-30 120-52 171-65s147-20 289-20c184 5 303 7 355 7z"/><path id="3" class="fil1" d="M4487 40h1391c-4 149-4 301 0 457-96-57-188-91-278-101h-203c-9 465-12 826-7 1082 5 257 10 418 17 485s23 130 50 188h-552c30-63 47-126 51-189 4-62 10-223 17-481 8-259 4-620-11-1085h-252c-84 7-160 41-229 101 14-162 16-314 7-457z"/><path id="4" class="fil1" d="M5982 40h634c-18 1287-18 1991 0 2112h-465c20-121 20-706 0-1755h-180l12-357z"/><path id="5" class="fil1" d="M6720 40h654l731 1357-74-1357h488c-42 134-49 838-20 2112h-420c-227-428-500-899-817-1414 15 767 37 1238 66 1414h-483c32-178 46-763 43-1755h-180l12-357z"/><path id="6" class="fil1" d="M10302 0l-8 523c-129-30-241-56-336-79s-194-34-296-34c-123 4-214 20-271 48s-105 60-145 97c-39 36-72 76-101 119-28 43-51 86-69 128s-32 83-41 124-15 99-17 174c3 434 213 665 628 695 94-4 172-21 235-51 64-30 114-71 151-124s63-132 79-238v-101c-184 1-331 7-440 21l112-380 658 1v598c-1 96-28 188-82 275-53 87-113 150-177 190-65 39-129 71-192 94s-175 43-334 59c-667-2-1015-347-1044-1033C8653 401 8998 45 9648 38c105-2 251-1 438 2l215-40z"/><path class="fil2" d="M333 2610v1214h354c394 0 593-321 586-623-5-295-206-595-588-591H333zm95 1126V2697h260c319 0 484 260 489 506 7 255-158 538-493 532H427z"/><path id="1" class="fil2" d="M2196 2609h-605v1214h605v-90h-512v-473h505v-88h-503v-472h510v-90z"/><path id="2" class="fil2" d="M2938 3833c142-402 288-820 430-1223h-97l-402 1160-409-1160h-97l435 1223h140z"/><path id="3" class="fil2" d="M4211 2609h-605v1214h605v-90h-512v-473h505v-88h-503v-472h510v-90z"/><path id="4" class="fil2" d="M5071 3734h-473V2610h-94v1214h567v-90z"/><path id="5" class="fil2" d="M5833 2591c354 0 600 295 600 628 0 414-302 621-602 621s-598-206-598-621c0-333 238-628 600-628zm-506 628c0 352 250 531 501 534 255 3 512-175 512-534 0-720-1013-715-1013 0z"/><path id="6" class="fil2" d="M6840 3361h251c255 0 383-180 385-366 2-191-128-383-387-387h-342v1216h92v-463zm0-87v-578h250c192 10 293 153 295 293 2 139-95 277-295 284h-250z"/><path id="7" class="fil2" d="M8389 2609h-605v1214h605v-90h-512v-473h505v-88h-503v-472h510v-90z"/><path id="8" class="fil2" d="M9084 3309c225-9 385-121 383-347-3-232-172-352-392-352h-364v1214h92v-515h165l401 515h118l-402-515zm-281-85v-525h274c172 0 298 83 298 264 0 177-120 262-298 262h-274z"/><path id="9" class="fil2" d="M9827 2907c9-154 130-225 251-224 99 0 208 57 260 156l73-36c-59-139-198-212-336-212-165 0-333 102-340 310-7 225 177 297 328 338 125 33 298 99 284 286-9 135-121 225-277 224-127 0-234-75-286-186-21 10-50 28-75 40 66 154 217 236 359 236 170 0 354-108 371-307 12-243-179-338-350-382-108-28-272-76-262-245z"/></g></g></svg>
